<?xml version="1.0" encoding="UTF-8" standalone="no"?>
<svg
   xmlns:dc="http://purl.org/dc/elements/1.1/"
   xmlns:cc="http://creativecommons.org/ns#"
   xmlns:rdf="http://www.w3.org/1999/02/22-rdf-syntax-ns#"
   xmlns:svg="http://www.w3.org/2000/svg"
   xmlns="http://www.w3.org/2000/svg"
   xmlns:sodipodi="http://sodipodi.sourceforge.net/DTD/sodipodi-0.dtd"
   xmlns:inkscape="http://www.inkscape.org/namespaces/inkscape"
   sodipodi:docname="icon.svg"
   inkscape:version="1.0 (6e3e5246a0, 2020-05-07)"
   id="svg8"
   version="1.1"
   viewBox="0 0 25.399999 25.400001"
   height="96"
   width="96">
  <defs
     id="defs2" />
  <sodipodi:namedview
     inkscape:window-maximized="0"
     inkscape:window-y="23"
     inkscape:window-x="26"
     inkscape:window-height="1043"
     inkscape:window-width="1637"
     units="px"
     showgrid="false"
     inkscape:document-rotation="0"
     inkscape:current-layer="layer1"
     inkscape:document-units="mm"
     inkscape:cy="-49.16746"
     inkscape:cx="34.739816"
     inkscape:zoom="1.4"
     inkscape:pageshadow="2"
     inkscape:pageopacity="0.0"
     borderopacity="1.0"
     bordercolor="#666666"
     pagecolor="#ffffff"
     id="base" />
  <metadata
     id="metadata5">
    <rdf:RDF>
      <cc:Work
         rdf:about="">
        <dc:format>image/svg+xml</dc:format>
        <dc:type
           rdf:resource="http://purl.org/dc/dcmitype/StillImage" />
        <dc:title></dc:title>
      </cc:Work>
    </rdf:RDF>
  </metadata>
  <g
     id="layer1"
     inkscape:groupmode="layer"
     inkscape:label="Layer 1">
    <g
       transform="matrix(0.01697679,0,0,-0.01697679,-16.266687,39.212345)"
       id="g38">
      <path
         id="path40"
         style="fill:#ed1441;fill-opacity:1;fill-rule:nonzero;stroke:none"
         d="m 567.68,78.7813 c 0,8.25 -3.016,12.707 -8.575,12.707 -14.14,0 -23.503,-26.3672 -23.503,-39.2383 0,-9.3711 3.328,-14.1289 9.207,-14.1289 12.871,0 22.871,27.7891 22.871,40.6602 z m 12.238,-27.3204 c -1.27,-4.1328 -1.75,-6.9921 -1.75,-9.0507 0,-2.711 1.27,-4.1407 3.652,-4.1407 3.496,0 6.993,5.4024 10.645,16.0508 l 7.617,-2.3789 c -6.191,-19.3906 -14.766,-26.543 -24.453,-26.543 -7.469,0 -13.027,4.7735 -13.027,13.9922 0,1.1094 0,1.8985 0.156,3.4883 l -1.113,0.4727 c -6.036,-11.9102 -15.086,-17.9532 -24.141,-17.9532 -13.66,0 -21.133,11.2813 -21.133,25.2735 0,16.1992 6.516,30.6484 15.098,39.0664 7.461,7.6328 15.879,12.0707 24.777,12.0707 8.895,0 13.973,-6.1879 15.41,-13.3402 l 3.172,12.2302 h 18.106 L 579.918,51.4609" />
      <path
         id="path42"
         style="fill:#ed1441;fill-opacity:1;fill-rule:nonzero;stroke:none"
         d="m 679.664,38.2695 c 3.34,0 6.68,5.0821 10.965,16.0508 l 7.461,-2.3789 c -6.348,-19.2226 -15.242,-26.543 -24.297,-26.543 -8.582,0 -14.141,5.5704 -14.141,14.7813 0,15.8906 10.481,31.6094 10.481,42.4101 0,3.6485 -1.582,5.2383 -4.289,5.2383 -7.305,0 -20.965,-12.0664 -33.672,-60.8398 h -19.063 l 13.664,51.4726 c 2.383,9.0508 1.903,11.5899 -0.957,11.5899 -3.652,0 -7.785,-6.8203 -12.382,-16.6719 l -7.473,3.1797 c 6.836,15.8711 14.777,25.0894 25.422,25.0894 6.824,0 11.59,-4.9175 11.59,-14.7691 0,-4.6094 -0.957,-10.3203 -3.34,-17.6289 l 1.113,-0.4805 c 10.488,22.3907 22.238,33.0395 33.516,33.0395 8.898,0 14.465,-6.9887 14.465,-16.5199 0,-13.5 -11.758,-33.8282 -11.758,-43.5196 0,-2.3789 0.945,-3.5 2.695,-3.5" />
      <path
         id="path44"
         style="fill:#ed1441;fill-opacity:1;fill-rule:nonzero;stroke:none"
         d="m 758.922,63.3711 c 0,-18.4297 9.051,-27.3203 23.984,-27.3203 25.899,0 36.375,38.5976 36.375,59.0898 0,18.4294 -9.207,27.3204 -23.984,27.3204 -26.043,0 -36.375,-38.6016 -36.375,-59.0899 z m 37.168,70.6879 c 26.055,0 44.324,-18.59 44.324,-45.9106 0,-30.6601 -23.035,-63.6875 -58.301,-63.6875 -26.043,0 -44.472,18.5782 -44.472,45.8985 0,30.6606 23.027,63.6996 58.449,63.6996" />
      <path
         id="path46"
         style="fill:#ed1441;fill-opacity:1;fill-rule:nonzero;stroke:none"
         d="m 877.895,49.8711 c 0,-7.793 3.332,-13.1914 10.324,-13.1914 14.129,0 22.078,26.6914 22.078,39.2422 0,8.8984 -2.859,13.5 -8.738,13.5 -12.707,0 -23.664,-25.5703 -23.664,-39.5508 z m -12.872,38.7578 c -3.652,0 -6.511,-4.6094 -11.589,-15.25 l -7.473,3.1797 c 7.629,17.4727 15.09,25.0894 25.098,25.0894 7.148,0 11.914,-5.2378 11.914,-14.2886 0,-1.1211 -0.157,-2.5391 -0.321,-3.9805 l 1.278,-0.4687 c 6.035,12.539 15.722,18.8988 24.465,18.8988 13.339,0 20.964,-10.9574 20.964,-25.7309 0,-25.5781 -17.636,-49.2383 -37.175,-49.2383 -8.418,0 -15.09,4.2891 -18.106,10.6407 L 867.73,13.8086 h 14.922 L 879.477,2.05078 h -43.993 l 3.172,11.75782 h 10.801 l 16.836,62.9023 c 2.383,8.8985 1.594,11.918 -1.27,11.918" />
      <path
         id="path48"
         style="fill:#ed1441;fill-opacity:1;fill-rule:nonzero;stroke:none"
         d="m 958.891,64.3203 c 22.082,2.3789 30.187,10.9688 30.187,20.8086 0,4.4492 -2.539,7.9414 -7.305,7.9414 -11.125,0 -19.543,-15.0898 -22.882,-28.75 z m -1.426,-7.4609 c -0.156,-1.2696 -0.156,-2.5391 -0.156,-3.6485 0,-13.1914 6.828,-17.3203 14.765,-17.3203 7.793,0 15.578,5.25 22.246,14.6094 l 6.67,-4.7617 c -8.103,-11.5977 -17.947,-20.3399 -34.783,-20.3399 -16.367,0 -27.805,11.4414 -27.805,28.9219 0,24.461 21.133,47.4887 46.067,47.4887 13.66,0 21.291,-6.8285 21.291,-16.5199 0,-14.2891 -14.936,-26.5274 -48.295,-28.4297" />
      <path
         id="path50"
         style="fill:#ed1441;fill-opacity:1;fill-rule:nonzero;stroke:none"
         d="m 1087.55,38.2695 c 3.34,0 6.68,5.0821 10.97,16.0508 l 7.46,-2.3789 c -6.35,-19.2226 -15.24,-26.543 -24.3,-26.543 -8.58,0 -14.14,5.5704 -14.14,14.7813 0,15.8906 10.48,31.6094 10.48,42.4101 0,3.6485 -1.58,5.2383 -4.28,5.2383 -7.31,0 -20.97,-12.0664 -33.68,-60.8398 H 1021 l 13.66,51.4726 c 2.39,9.0508 1.91,11.5899 -0.95,11.5899 -3.66,0 -7.79,-6.8203 -12.39,-16.6719 l -7.47,3.1797 c 6.84,15.8711 14.78,25.0894 25.42,25.0894 6.83,0 11.59,-4.9175 11.59,-14.7691 0,-4.6094 -0.95,-10.3203 -3.34,-17.6289 l 1.12,-0.4805 c 10.49,22.3907 22.23,33.0395 33.51,33.0395 8.9,0 14.47,-6.9887 14.47,-16.5199 0,-13.5 -11.76,-33.8282 -11.76,-43.5196 0,-2.3789 0.95,-3.5 2.69,-3.5" />
      <path
         id="path52"
         style="fill:#ed1441;fill-opacity:1;fill-rule:nonzero;stroke:none"
         d="m 1122.5,64.1602 h 11.27 c 3.02,-19.0586 14.15,-28.4219 28.12,-28.4219 12.55,0 19.85,7.9336 19.85,16.2031 0,9.207 -10.48,13.4883 -21.75,18.7383 -13.19,5.8789 -27.64,12.8711 -27.64,29.6993 0,17.793 16.04,33.68 37.17,33.68 11.28,0 21.75,-4.61 27,-12.071 l 6.51,11.59 h 11.92 l -9.38,-37.6483 h -11.11 c -3.34,19.6993 -11.28,27.0003 -24.94,27.0003 -10.33,0 -17.64,-7.461 -17.64,-15.719 0,-10.0118 10.8,-14.3008 22.25,-19.3829 13.01,-5.5586 27,-12.2265 27,-28.9062 0,-19.5313 -17.32,-34.461 -39.08,-34.461 -13.82,0 -24.14,5.0704 -30.18,12.6993 l -6.99,-12.2305 h -11.92 l 9.54,39.2305" />
      <path
         id="path54"
         style="fill:#ed1441;fill-opacity:1;fill-rule:nonzero;stroke:none"
         d="M 1253.22,88.7813 1243.69,54 c -1.11,-3.9687 -1.91,-7.6289 -1.91,-9.5312 0,-4.2891 2.23,-5.7188 5.57,-5.7188 5.71,0 10.48,6.9883 14.92,17.1484 l 7.63,-2.539 c -7.79,-22.5586 -20.01,-27.961 -28.6,-27.961 -10.47,0 -17.95,5.25 -17.95,16.0508 0,4.6094 1.75,11.2813 2.87,15.7227 l 8.58,31.6094 h -13.98 l 2.53,9.6992 h 13.99 l 5.24,19.0505 18.9,2.071 -5.71,-21.1215 h 22.55 l -2.54,-9.6992 h -22.56" />
      <path
         id="path56"
         style="fill:#ed1441;fill-opacity:1;fill-rule:nonzero;stroke:none"
         d="m 1333.59,78.7813 c 0,8.25 -3.02,12.707 -8.58,12.707 -14.14,0 -23.5,-26.3672 -23.5,-39.2383 0,-9.3711 3.33,-14.1289 9.21,-14.1289 12.87,0 22.87,27.7891 22.87,40.6602 z m 12.24,-27.3204 c -1.27,-4.1328 -1.75,-6.9921 -1.75,-9.0507 0,-2.711 1.27,-4.1407 3.65,-4.1407 3.5,0 6.99,5.4024 10.64,16.0508 l 7.62,-2.3789 c -6.19,-19.3906 -14.76,-26.543 -24.45,-26.543 -7.47,0 -13.03,4.7735 -13.03,13.9922 0,1.1094 0,1.8985 0.16,3.4883 l -1.12,0.4727 c -6.03,-11.9102 -15.08,-17.9532 -24.14,-17.9532 -13.66,0 -21.13,11.2813 -21.13,25.2735 0,16.1992 6.51,30.6484 15.1,39.0664 7.46,7.6328 15.88,12.0707 24.77,12.0707 8.9,0 13.98,-6.1879 15.41,-13.3402 l 3.18,12.2302 h 18.1 l -13.01,-49.2381" />
      <path
         id="path58"
         style="fill:#ed1441;fill-opacity:1;fill-rule:nonzero;stroke:none"
         d="m 1438.75,83.0703 c 0,-6.8398 -4.29,-13.6601 -11.13,-13.6601 -5.71,0 -9.36,3.8086 -9.36,8.5703 0,4.4492 2.69,8.1093 6.5,10.8008 -1.27,2.2304 -3.96,3.9804 -8.73,3.9804 -15.89,0 -25.25,-24.3125 -25.25,-38.1328 0,-13.6601 7.3,-17.9492 14.45,-17.9492 7.3,0 14.3,5.25 20.64,15.0898 l 6.84,-4.5976 c -6.84,-11.9102 -16.2,-21.7735 -31.77,-21.7735 -17.48,0 -29.23,11.9219 -29.23,29.2305 0,24.793 21.28,47.1801 44,47.1801 13.35,0 23.04,-7.4574 23.04,-18.7387" />
      <path
         id="path60"
         style="fill:#ed1441;fill-opacity:1;fill-rule:nonzero;stroke:none"
         d="m 1506.1,38.2695 c 3.49,0 6.51,5.0821 10.64,16.0508 l 7.46,-2.3789 c -6.03,-19.2226 -14.29,-26.543 -23.5,-26.543 -8.9,0 -14.78,5.8829 -14.78,16.2032 0,4.457 1.75,10.8086 1.75,14.2968 0,5.8829 -2.54,7.3204 -14.14,7.3204 h -0.31 l -9.69,-36.2305 h -17.95 l 25.73,97.0627 h -13.18 l 3.17,12.39 h 31.62 l -17.8,-66.0816 h 0.79 c 8.42,0 11.92,4.7617 18.91,16.3594 5.24,8.582 10.49,15.0902 19.85,15.0902 7.63,0 11.76,-4.7699 11.76,-11.5902 0,-6.668 -4.29,-13.3477 -10.8,-13.3477 -6.36,0 -9.69,5.5586 -7.47,12.0781 -2.22,-0.4804 -4.6,-3.1875 -8.25,-9.2187 -3.19,-5.8789 -5.73,-9.211 -10.49,-11.75 11.28,-0.961 14.93,-5.8789 14.93,-13.3516 0,-4.5976 -1.27,-9.207 -1.27,-12.0703 0,-3.168 1.27,-4.2891 3.02,-4.2891" />
      <path
         id="path62"
         style="fill:#ed1441;fill-opacity:1;fill-rule:nonzero;stroke:none"
         d="m 1592.97,68.7695 c 0,31.9295 23.52,65.2895 58.46,65.2895 13.18,0 23.03,-4.77 28.44,-12.868 l 6.5,12.387 h 12.24 l -10.17,-41.2967 h -11.91 c -1.59,22.8667 -11.59,30.1797 -24.46,30.1797 -28.12,0 -37.81,-37.8126 -37.81,-55.2813 0,-21.1211 10.8,-30.0195 24.62,-30.0195 16.84,0 26.69,12.7109 34.63,31.4609 l 11.28,-3.9805 c -7.95,-22.2304 -22.71,-40.1797 -48.13,-40.1797 -29.23,0 -43.69,18.5782 -43.69,44.3086" />
      <path
         id="path64"
         style="fill:#ed1441;fill-opacity:1;fill-rule:nonzero;stroke:none"
         d="m 1737.2,93.0703 c -14.77,0 -23.19,-28.9101 -23.19,-44.3203 0,-10.1602 4.29,-14.4492 11.12,-14.4492 14.78,0 23.2,28.918 23.2,44.3203 0,10.1602 -4.29,14.4492 -11.13,14.4492 z m 30.02,-21.9101 c 0,-24.7891 -19.85,-45.7618 -41.93,-45.7618 -18.26,0 -30.18,12.8711 -30.18,30.8204 0,24.7812 19.86,45.5902 41.94,45.5902 18.26,0 30.17,-12.7074 30.17,-30.6488" />
      <path
         id="path66"
         style="fill:#ed1441;fill-opacity:1;fill-rule:nonzero;stroke:none"
         d="m 1870.46,40.1797 c 0,15.8906 10.49,31.6094 10.49,42.4101 0,3.6485 -1.59,5.2383 -4.28,5.2383 -7,0 -20.82,-12.0664 -33.52,-60.8398 h -18.75 l 11.12,41.9414 c 1.43,5.2422 2.23,9.0508 2.23,12.0703 0,3.8203 -1.27,6.8281 -4.77,6.8281 -7.3,0 -20.96,-12.0664 -33.68,-60.8398 h -19.05 l 13.65,51.4726 c 2.38,9.0508 1.92,11.5899 -0.95,11.5899 -3.65,0 -7.78,-6.8203 -12.39,-16.6719 l -7.46,3.1797 c 6.83,15.8711 14.77,25.0894 25.41,25.0894 6.84,0 11.6,-4.9175 11.6,-14.7691 0,-4.6094 -0.95,-10.3203 -3.34,-17.6289 l 1.12,-0.4805 c 10.47,22.3907 22.23,33.0395 33.03,33.0395 8.74,0 13.34,-5.8793 13.34,-15.4106 0,-4.4375 -1.27,-9.8398 -3.65,-17.1484 l 1.11,-0.4805 c 10.49,22.3907 22.24,33.0395 33.52,33.0395 8.74,0 14.3,-6.9887 14.3,-16.5199 0,-13.5 -11.76,-33.8282 -11.76,-43.5196 0,-2.3789 0.96,-3.5 2.7,-3.5 3.34,0 6.67,5.0821 10.96,16.0508 l 7.47,-2.3789 c -6.36,-19.2226 -15.25,-26.543 -24.31,-26.543 -8.57,0 -14.14,5.5704 -14.14,14.7813" />
      <path
         id="path68"
         style="fill:#ed1441;fill-opacity:1;fill-rule:nonzero;stroke:none"
         d="m 2009.77,40.1797 c 0,15.8906 10.49,31.6094 10.49,42.4101 0,3.6485 -1.59,5.2383 -4.29,5.2383 -6.99,0 -20.81,-12.0664 -33.51,-60.8398 h -18.75 l 11.12,41.9414 c 1.42,5.2422 2.22,9.0508 2.22,12.0703 0,3.8203 -1.27,6.8281 -4.76,6.8281 -7.31,0 -20.98,-12.0664 -33.68,-60.8398 h -19.06 l 13.66,51.4726 c 2.38,9.0508 1.9,11.5899 -0.95,11.5899 -3.66,0 -7.78,-6.8203 -12.39,-16.6719 l -7.47,3.1797 c 6.83,15.8711 14.77,25.0894 25.42,25.0894 6.82,0 11.59,-4.9175 11.59,-14.7691 0,-4.6094 -0.95,-10.3203 -3.33,-17.6289 l 1.11,-0.4805 c 10.48,22.3907 22.24,33.0395 33.04,33.0395 8.73,0 13.34,-5.8793 13.34,-15.4106 0,-4.4375 -1.27,-9.8398 -3.65,-17.1484 l 1.11,-0.4805 c 10.48,22.3907 22.24,33.0395 33.52,33.0395 8.74,0 14.29,-6.9887 14.29,-16.5199 0,-13.5 -11.76,-33.8282 -11.76,-43.5196 0,-2.3789 0.96,-3.5 2.71,-3.5 3.33,0 6.67,5.0821 10.96,16.0508 l 7.47,-2.3789 c -6.36,-19.2226 -15.26,-26.543 -24.31,-26.543 -8.57,0 -14.14,5.5704 -14.14,14.7813" />
      <path
         id="path70"
         style="fill:#ed1441;fill-opacity:1;fill-rule:nonzero;stroke:none"
         d="m 2107.47,40.3281 c 0,3.9805 0.94,10.0117 3.48,18.1211 l -1.1,0.4727 c -10.49,-23.0313 -21.61,-33.5235 -33.05,-33.5235 -8.73,0 -14.45,6.8399 -14.45,16.6797 0,13.3516 11.28,34.4805 11.28,43.5313 0,2.2187 -0.96,3.3398 -2.38,3.3398 -3.34,0 -6.04,-3.5 -11.76,-15.4101 l -7.46,3.1718 c 6.51,15.7188 14.93,25.0981 25.89,25.0981 8.41,0 13.34,-5.2387 13.34,-14.4496 0,-14.7774 -10.48,-31.6211 -10.48,-41.7774 0,-4.4414 1.74,-6.1914 4.44,-6.1914 7.15,0 20.33,11.75 33.36,61.3084 h 19.06 l -13.03,-49.2381 c -1.27,-4.289 -1.74,-6.9921 -1.74,-9.0507 0,-2.711 1.43,-4.1407 3.65,-4.1407 3.66,0 6.99,5.4024 10.64,16.0508 l 7.63,-2.3789 c -6.19,-19.3906 -14.78,-26.543 -23.83,-26.543 -8.26,0 -13.49,4.6133 -13.49,14.9297" />
      <path
         id="path72"
         style="fill:#ed1441;fill-opacity:1;fill-rule:nonzero;stroke:none"
         d="m 2220.72,38.2695 c 3.33,0 6.67,5.0821 10.95,16.0508 l 7.47,-2.3789 c -6.35,-19.2226 -15.25,-26.543 -24.3,-26.543 -8.59,0 -14.14,5.5704 -14.14,14.7813 0,15.8906 10.49,31.6094 10.49,42.4101 0,3.6485 -1.6,5.2383 -4.29,5.2383 -7.32,0 -20.98,-12.0664 -33.68,-60.8398 h -19.06 l 13.66,51.4726 c 2.38,9.0508 1.9,11.5899 -0.95,11.5899 -3.66,0 -7.78,-6.8203 -12.39,-16.6719 l -7.47,3.1797 c 6.83,15.8711 14.77,25.0894 25.42,25.0894 6.82,0 11.59,-4.9175 11.59,-14.7691 0,-4.6094 -0.95,-10.3203 -3.33,-17.6289 l 1.11,-0.4805 c 10.48,22.3907 22.24,33.0395 33.52,33.0395 8.88,0 14.45,-6.9887 14.45,-16.5199 0,-13.5 -11.76,-33.8282 -11.76,-43.5196 0,-2.3789 0.96,-3.5 2.71,-3.5" />
      <path
         id="path74"
         style="fill:#ed1441;fill-opacity:1;fill-rule:nonzero;stroke:none"
         d="m 2279.16,112.93 c -5.56,0 -9.85,3.808 -9.85,10.172 0,6.507 4.92,13.968 13.34,13.968 6.04,0 10.17,-3.808 10.17,-10.16 0,-6.359 -5.24,-13.98 -13.66,-13.98 z m -7.62,-70.8519 c 0,-2.6875 1.11,-3.8086 3.17,-3.8086 3.02,0 6.52,4.2891 11.28,16.0508 l 7.46,-2.3789 c -6.19,-18.75 -15.09,-26.543 -25.25,-26.543 -8.26,0 -14.3,5.4024 -14.3,14.9297 0,15.1016 13.18,36.3828 13.18,46.2422 0,2.5313 -0.94,3.4805 -2.38,3.4805 -4.44,0 -8.42,-6.8203 -12.86,-16.6719 l -7.63,3.1797 c 6.83,15.8711 15.26,25.2504 26.06,25.2504 8.25,0 14.13,-5.8793 14.13,-16.0473 0,-12.3828 -12.86,-34.4609 -12.86,-43.6836" />
      <path
         id="path76"
         style="fill:#ed1441;fill-opacity:1;fill-rule:nonzero;stroke:none"
         d="M 2335.23,88.7813 2325.7,54 c -1.12,-3.9687 -1.92,-7.6289 -1.92,-9.5312 0,-4.2891 2.23,-5.7188 5.57,-5.7188 5.71,0 10.48,6.9883 14.93,17.1484 l 7.63,-2.539 c -7.79,-22.5586 -20.02,-27.961 -28.59,-27.961 -10.49,0 -17.95,5.25 -17.95,16.0508 0,4.6094 1.74,11.2813 2.85,15.7227 l 8.58,31.6094 h -13.98 l 2.55,9.6992 h 13.97 l 5.24,19.0505 18.9,2.071 -5.71,-21.1215 h 22.56 l -2.55,-9.6992 h -22.55" />
      <path
         id="path78"
         style="fill:#ed1441;fill-opacity:1;fill-rule:nonzero;stroke:none"
         d="m 2397.82,87.9883 c 0,-14.6094 -9.22,-28.9102 -9.22,-38.1172 0,-3.9727 1.75,-5.5625 5.24,-5.5625 8.42,0 19.7,9.5312 31.77,56.3904 h 17.79 l -14.62,-61.3084 c -6.82,-29.2304 -22.87,-39.4023188 -42.72,-39.4023188 -11.12,0 -24.46,3.0234388 -24.46,14.7812188 0,5.0821 3.81,11.4297 10.95,11.4297 6.36,0 9.53,-4.4492 9.22,-9.6875 -0.16,-2.5429 -1.59,-5.4023 -3.18,-6.83201 1.91,-0.62891 4.3,-1.10938 7.31,-1.10938 12.39,0 20.8,10.00779 26.2,32.08989 l 3.19,12.5507 -0.96,0.4688 c -9.21,-16.8399 -19.06,-23.0313 -28.27,-23.0313 -10.49,0 -15.72,7.3008 -15.72,16.5235 0,12.2265 10.16,29.3867 10.16,38.4375 0,2.0625 -0.95,3.3398 -2.38,3.3398 -3.97,0 -7.78,-6.5195 -12.08,-15.5703 l -7.46,3.1797 c 6.99,15.8711 15.72,25.2504 26.21,25.2504 8.1,0 13.03,-5.3988 13.03,-13.8207" />
      <path
         id="path80"
         style="fill:#ed1441;fill-opacity:1;fill-rule:nonzero;stroke:none"
         d="m 2527.74,80.0508 c 20.33,0 27.48,12.7109 27.48,24.9292 0,9.219 -5.57,14.782 -21.29,14.782 h -6.83 l -9.85,-39.7112 z m -20.81,-41.1406 h 17.31 l -2.7,-11.9219 h -53.37 l 2.7,11.9219 h 16.04 l 20.02,80.6918 h -16.2 l 3.02,11.918 h 43.99 c 28.76,0 39.72,-11.758 39.72,-26.692 0,-15.8788 -10.96,-36.0585 -50.36,-36.0585 h -12.71 l -7.46,-29.8593" />
      <path
         id="path82"
         style="fill:#ed1441;fill-opacity:1;fill-rule:nonzero;stroke:none"
         d="m 2602.23,78.4609 c 2.38,9.0508 1.91,11.5899 -0.95,11.5899 -3.66,0 -7.78,-6.8203 -12.39,-16.6719 l -7.47,3.1797 c 6.84,15.8711 14.78,25.0894 25.42,25.0894 6.83,0 11.59,-4.9175 11.59,-14.7691 0,-4.6094 -0.94,-10.168 -3.17,-17.1601 l 1.27,-0.4688 c 9.21,20.9688 16.83,32.559 27.96,32.559 6.67,0 11.59,-4.6098 11.59,-12.0707 0,-7.9375 -5.08,-14.2969 -11.44,-14.2969 -5.55,0 -9.84,3.6484 -9.53,10.3203 -4.61,-1.9023 -16.04,-15.4023 -27.48,-58.7734 h -19.06 l 13.66,51.4726" />
      <path
         id="path84"
         style="fill:#ed1441;fill-opacity:1;fill-rule:nonzero;stroke:none"
         d="m 2701.51,93.0703 c -14.78,0 -23.19,-28.9101 -23.19,-44.3203 0,-10.1602 4.28,-14.4492 11.12,-14.4492 14.76,0 23.18,28.918 23.18,44.3203 0,10.1602 -4.29,14.4492 -11.11,14.4492 z m 30.02,-21.9101 c 0,-24.7891 -19.86,-45.7618 -41.94,-45.7618 -18.27,0 -30.18,12.8711 -30.18,30.8204 0,24.7812 19.86,45.5902 41.94,45.5902 18.26,0 30.18,-12.7074 30.18,-30.6488" />
      <path
         id="path86"
         style="fill:#ed1441;fill-opacity:1;fill-rule:nonzero;stroke:none"
         d="m 2780.29,112.93 c -5.56,0 -9.85,3.808 -9.85,10.172 0,6.507 5.09,13.968 13.34,13.968 6.04,0 10.17,-3.808 10.17,-10.16 0,-6.359 -5.23,-13.98 -13.66,-13.98 z m 3.03,-39.7112 -10.01,-37.9571 C 2766.64,10 2754.24,-0.0117188 2739.62,-0.0117188 c -11.11,0 -15.87,5.2499988 -15.87,11.2812188 0,5.8789 4.28,11.2813 10.47,11.2813 5.4,0 8.27,-3.9727 8.27,-8.1016 0,-3.3398 -1.27,-6.03904 -2.54,-7.62889 6.82,-0.16015 9.53,3.96879 15.41,26.69139 l 10.47,40.1797 c 0.96,3.8086 2.39,9.3789 2.39,12.707 0,2.8633 -1.27,3.6524 -2.7,3.6524 -3.82,0 -7.95,-6.8203 -12.55,-16.6719 l -7.47,3.1797 c 6.84,15.8711 15.1,25.2504 26.21,25.2504 8.11,0 13.82,-6.1879 13.82,-15.0902 0,-3.6485 -0.79,-8.0977 -2.21,-13.5" />
      <path
         id="path88"
         style="fill:#ed1441;fill-opacity:1;fill-rule:nonzero;stroke:none"
         d="m 2819.05,64.3203 c 22.08,2.3789 30.17,10.9688 30.17,20.8086 0,4.4492 -2.54,7.9414 -7.3,7.9414 -11.12,0 -19.54,-15.0898 -22.87,-28.75 z m -1.44,-7.4609 c -0.15,-1.2696 -0.15,-2.5391 -0.15,-3.6485 0,-13.1914 6.82,-17.3203 14.77,-17.3203 7.78,0 15.57,5.25 22.24,14.6094 l 6.67,-4.7617 c -8.1,-11.5977 -17.95,-20.3399 -34.79,-20.3399 -16.35,0 -27.8,11.4414 -27.8,28.9219 0,24.461 21.13,47.4887 46.06,47.4887 13.67,0 21.29,-6.8285 21.29,-16.5199 0,-14.2891 -14.93,-26.5274 -48.29,-28.4297" />
      <path
         id="path90"
         style="fill:#ed1441;fill-opacity:1;fill-rule:nonzero;stroke:none"
         d="m 2942.47,83.0703 c 0,-6.8398 -4.3,-13.6601 -11.13,-13.6601 -5.72,0 -9.37,3.8086 -9.37,8.5703 0,4.4492 2.7,8.1093 6.51,10.8008 -1.27,2.2304 -3.96,3.9804 -8.73,3.9804 -15.89,0 -25.26,-24.3125 -25.26,-38.1328 0,-13.6601 7.31,-17.9492 14.45,-17.9492 7.31,0 14.3,5.25 20.65,15.0898 l 6.83,-4.5976 c -6.83,-11.9102 -16.2,-21.7735 -31.77,-21.7735 -17.47,0 -29.23,11.9219 -29.23,29.2305 0,24.793 21.29,47.1801 44.01,47.1801 13.34,0 23.04,-7.4574 23.04,-18.7387" />
      <path
         id="path92"
         style="fill:#ed1441;fill-opacity:1;fill-rule:nonzero;stroke:none"
         d="M 2986.78,88.7813 2977.25,54 c -1.11,-3.9687 -1.91,-7.6289 -1.91,-9.5312 0,-4.2891 2.22,-5.7188 5.56,-5.7188 5.72,0 10.48,6.9883 14.93,17.1484 l 7.62,-2.539 c -7.78,-22.5586 -20.01,-27.961 -28.58,-27.961 -10.49,0 -17.95,5.25 -17.95,16.0508 0,4.6094 1.75,11.2813 2.85,15.7227 l 8.58,31.6094 h -13.98 l 2.55,9.6992 h 13.97 l 5.25,19.0505 18.89,2.071 -5.71,-21.1215 h 22.56 l -2.55,-9.6992 h -22.55" />
      <path
         id="path94"
         style="fill:#201916;fill-opacity:1;fill-rule:nonzero;stroke:none"
         d="m 154.867,481.57 c 40.321,0 64.641,23.68 64.641,61.43 v 1.922 c 0,40.957 -23.684,62.066 -65.278,62.066 H 114.551 V 481.57 Z M 0,705.551 h 159.988 c 105.594,0 174.707,-55.039 174.707,-155.512 v -2.559 c 0,-107.519 -78.074,-158.71 -175.984,-159.992 h -44.16 V 257.578 H 0 v 447.973" />
      <path
         id="path96"
         style="fill:#201916;fill-opacity:1;fill-rule:nonzero;stroke:none"
         d="M 375.035,705.551 H 490.23 V 361.25 H 666.215 V 257.578 h -291.18 v 447.973" />
      <path
         id="path98"
         style="fill:#201916;fill-opacity:1;fill-rule:nonzero;stroke:none"
         d="m 961.887,430.359 -41.598,131.2 -41.598,-131.2 z m -98.551,277.75 H 979.805 L 1137.87,257.578 h -120.95 l -26.236,80.641 H 849.895 L 824.297,257.578 H 705.902 l 157.434,450.531" />
      <path
         id="path100"
         style="fill:#201916;fill-opacity:1;fill-rule:nonzero;stroke:none"
         d="m 1134.06,477.078 v 7.692 c 0,138.218 90.23,228.46 207.98,228.46 70.4,0 118.4,-27.519 154.87,-70.402 l -74.23,-78.719 c -19.2,23.051 -43.52,42.25 -78.72,42.25 -52.48,0 -91.51,-46.718 -91.51,-122.871 v -2.566 c 0,-79.992 39.67,-124.152 91.51,-124.152 38.4,0 61.44,20.48 81.91,44.16 l 72.97,-74.239 c -36.49,-44.793 -86.4,-76.781 -161.28,-76.781 -114.55,0 -203.5,87.66 -203.5,227.168" />
      <path
         id="path102"
         style="fill:#201916;fill-opacity:1;fill-rule:nonzero;stroke:none"
         d="m 1551.34,705.551 h 308.45 V 604.441 H 1665.24 V 530.84 h 175.35 v -95.352 h -175.35 v -76.797 h 197.11 V 257.578 h -311.01 v 447.973" />
      <path
         id="path104"
         style="fill:#201916;fill-opacity:1;fill-rule:nonzero;stroke:none"
         d="m 1916.14,705.551 h 118.38 l 90.88,-165.11 90.23,165.11 h 119.04 V 257.578 H 2220.75 V 509.719 L 2125.4,343.328 h -1.92 l -95.35,165.113 V 257.578 h -111.99 v 447.973" />
      <path
         id="path106"
         style="fill:#201916;fill-opacity:1;fill-rule:nonzero;stroke:none"
         d="m 2398.05,705.551 h 308.46 V 604.441 H 2511.96 V 530.84 h 175.35 v -95.352 h -175.35 v -76.797 h 197.11 V 257.578 h -311.02 v 447.973" />
      <path
         id="path108"
         style="fill:#201916;fill-opacity:1;fill-rule:nonzero;stroke:none"
         d="m 2769.24,705.551 h 108.15 l 149.12,-225.262 v 225.262 h 113.26 V 257.578 H 3037.39 L 2882.52,492.441 V 257.578 h -113.28 v 447.973" />
      <path
         id="path110"
         style="fill:#201916;fill-opacity:1;fill-rule:nonzero;stroke:none"
         d="m 3302.35,601.879 h -110.7 v 103.672 h 336.6 V 601.879 H 3417.54 V 257.578 h -115.19 v 344.301" />
      <path
         id="path112"
         style="fill:#ffffff;fill-opacity:1;fill-rule:nonzero;stroke:none"
         d="m 1852.5,2124.88 c 0,-0.61 -0.17,-1.31 -0.17,-2 h -0.09 c -1.13,-9.79 -10.3,-17.21 -20.88,-15.03 -6.37,1.22 -11.78,6.47 -13.36,12.84 -0.95,4.02 -0.44,7.86 0.96,11.19 2.71,6.19 8.92,10.47 16.07,10.47 9.61,0 17.47,-7.77 17.47,-17.47" />
      <path
         id="path114"
         style="fill:#ffffff;fill-opacity:1;fill-rule:nonzero;stroke:none"
         d="m 1975.23,2144.97 113.99,-28.38 c 8.82,-2.19 8.82,-14.77 0,-16.95 l -113.99,-28.39 c -5.5,-1.4 -10.83,2.8 -10.83,8.48 v 32.75 24.02 c 0,5.68 5.33,9.87 10.83,8.47" />
      <path
         id="path116"
         style="fill:#1f1916;fill-opacity:1;fill-rule:nonzero;stroke:none"
         d="m 1587.92,1207.1 c 4.63,7.78 -4.1,16.51 -11.88,12.06 l -46.46,-26.82 c -1.31,-0.7 -2.36,-1.83 -3.15,-3.14 L 1421.7,1012.83 c -4.37,-7.33 3.4,-16.06 11.18,-12.49 15.64,7.35 30.31,17.39 43.06,30.14 l 16.42,16.34 c 0.53,0.53 0.97,1.13 1.31,1.75 z m 315.94,717.67 c 0,2.79 -1.31,5.33 -3.4,6.9 -17.91,13.88 -37.82,25.76 -59.66,35.46 -52.49,23.15 -83.77,62.72 -87.09,109.54 -0.35,4.54 -4.1,8.03 -8.73,8.03 -3.67,0 -6.82,-2.18 -8.12,-5.41 -1.58,-4.11 -3.06,-8.3 -4.2,-12.67 l -29.87,-150.59 h 192.34 c 4.89,0 8.73,3.93 8.73,8.74 z M 1345.27,987.59 c 3.49,-0.43 6.9,1.23 8.73,4.289 l 81.76,137.661 c 4.63,7.68 -4.1,16.51 -11.88,12.05 l -46.38,-26.82 c -1.31,-0.78 -2.36,-1.83 -3.14,-3.05 l -7.87,-13.37 -52.84,-91.54 c -2.71,-4.81 -0.35,-10.919 4.89,-12.751 8.74,-2.969 17.73,-5.059 26.73,-6.469 z m 367.39,541.22 c 20.61,-6.11 42.19,-9.35 64.38,-9.35 59.57,0 115.56,23.15 157.66,65.25 8.64,8.74 16.51,18 23.5,27.78 40.44,58 50.66,132.77 26.55,199.86 -2.19,6.02 -9.87,7.86 -14.41,3.32 l -20.88,-20.88 c -2.18,-2.18 -2.97,-5.41 -2.09,-8.47 17.21,-60.53 0.87,-127.01 -44.55,-172.43 -46.13,-46.12 -112.07,-62.19 -172.61,-44.72 -3.05,0.87 -6.28,0.09 -8.55,-2.19 l -20.88,-20.78 c -4.54,-4.55 -2.71,-12.24 3.32,-14.42 2.79,-1.05 5.68,-2.1 8.56,-2.97 z m 87.78,597.39 c -0.61,-20.36 12.76,-39.22 33.29,-44.73 20.26,-5.42 40.96,3.93 50.75,21.49 2.79,4.98 0.17,11.27 -5.42,12.75 l -26.73,7.17 c 0,0.69 0.17,1.39 0.17,2 0,9.7 -7.86,17.47 -17.47,17.47 -7.15,0 -13.36,-4.28 -16.07,-10.47 l -7.51,2 c -5.24,1.4 -10.83,-2.27 -11.01,-7.68 z m 469.59,-26.56 -329.39,-81.94 c -1.57,-0.43 -3.14,-1.22 -4.28,-2.44 -6.99,-7.51 -11.18,-17.38 -11.18,-28.04 0,-12.31 5.41,-23.93 14.93,-31.8 l 0.97,-0.78 16.24,-15.11 c 62.72,-58.09 93.2,-135.65 93.2,-237.24 0,-7.95 -0.43,-15.99 -0.95,-24.02 0,-0.26 -0.09,-0.53 -0.09,-0.88 -0.53,-7.25 -1.22,-14.5 -2.19,-21.75 0,-0.52 -0.09,-1.05 -0.17,-1.57 -7.6,-56.69 -27.95,-112.86 -58.27,-160.9 -0.43,-0.7 -0.78,-1.48 -0.95,-2.27 l -80.89,-301.61 c -0.43,-1.49 -0.43,-3.06 0,-4.55 l 48.91,-182.3 c 1.06,-3.838 4.47,-6.46 8.39,-6.46 h 40.97 c 4.8,0 8.74,-3.929 8.74,-8.73 v -26.121 c 0,-4.809 -3.94,-8.731 -8.74,-8.731 H 1888.4 c -4.89,0 -8.73,3.922 -8.73,8.731 v 26.121 c 0,4.801 3.84,8.73 8.73,8.73 h 12.67 c 5.77,0 9.96,5.42 8.48,11.01 l -47.44,176.27 c -0.17,0.7 -0.26,1.48 -0.26,2.27 l 0.09,146.92 c 0,7.77 -9.44,11.7 -14.93,6.2 l -33.28,-33.1 -54.77,-54.68 c -1.67,-1.57 -2.54,-3.85 -2.54,-6.12 v -240.03 c 0,-4.81 3.84,-8.74 8.74,-8.74 h 28.21 c 4.8,0 8.73,-3.929 8.73,-8.73 v -26.121 c 0,-4.809 -3.93,-8.731 -8.73,-8.731 H 1675.8 c -4.89,0 -8.74,3.922 -8.74,8.731 v 26.121 c 0,4.801 3.85,8.73 8.74,8.73 h 28.21 c 4.8,0 8.73,3.93 8.73,8.74 v 179.06 c 0,7.78 -9.43,11.71 -14.93,6.2 l -191.03,-190.5 c -19.83,-19.839 -43.24,-34.511 -68.4,-44.031 -7.6,-2.969 -15.46,-5.328 -23.41,-7.25 -15.37,-3.84 -31.18,-5.937 -47.08,-5.937 -13.63,0 -27.34,1.476 -40.79,4.277 -14.41,3.063 -28.65,7.859 -42.36,14.231 -5.07,2.371 -10.05,4.902 -14.94,7.699 l -13.89,8.031 c -4.19,2.449 -5.59,7.781 -3.23,11.879 l 16.5,29.011 c 0,0.07 66.65,115.46 151.38,262.39 3.23,5.59 -0.35,12.67 -6.81,13.19 -45.25,3.76 -89.01,22.97 -122.81,56.69 l -11.36,11.27 c -3.4,3.41 -3.4,9 0,12.4 l 213.66,213.83 c 1.05,1.05 1.83,2.45 2.27,3.93 l 56.69,215.05 8.73,33.02 c 7.86,29.97 24.03,56.35 45.77,76.79 6.64,6.19 13.8,11.79 21.32,16.76 10.04,6.73 20.96,12.32 32.58,16.6 2.79,1.05 4.98,3.49 5.59,6.46 l 24.11,121.33 c 18.17,69.27 81.23,120.37 156.18,120.37 h 87.69 c 7.17,0 14.24,-0.88 21.15,-2.62 l 314.71,-78.26 c 8.91,-2.19 8.91,-14.77 0,-16.95 z m -305.63,-19.91 c 0,-5.68 5.33,-9.88 10.83,-8.48 l 113.99,28.39 c 8.82,2.18 8.82,14.76 0,16.95 l -113.99,28.38 c -5.5,1.4 -10.83,-2.79 -10.83,-8.47 v -24.02 -32.75" />
      <path
         id="path118"
         style="fill:#ed1441;fill-opacity:1;fill-rule:nonzero;stroke:none"
         d="m 1831.36,2107.85 c 10.58,-2.18 19.75,5.24 20.88,15.03 h 0.09 l 26.73,-7.17 c 5.59,-1.48 8.21,-7.77 5.42,-12.75 -9.79,-17.56 -30.49,-26.91 -50.75,-21.49 -20.53,5.51 -33.9,24.37 -33.29,44.73 0.18,5.41 5.77,9.08 11.01,7.68 l 7.51,-2 c -1.4,-3.33 -1.91,-7.17 -0.96,-11.19 1.58,-6.37 6.99,-11.62 13.36,-12.84" />
      <path
         id="path120"
         style="fill:#ffffff;fill-opacity:1;fill-rule:nonzero;stroke:none"
         d="m 1753.71,2076.67 c 3.32,-46.82 34.6,-86.39 87.09,-109.54 21.84,-9.7 41.75,-21.58 59.66,-35.46 2.09,-1.57 3.4,-4.11 3.4,-6.9 0,-4.81 -3.84,-8.74 -8.73,-8.74 h -192.34 l 29.87,150.59 c 1.14,4.37 2.62,8.56 4.2,12.67 1.3,3.23 4.45,5.41 8.12,5.41 4.63,0 8.38,-3.49 8.73,-8.03" />
      <path
         id="path122"
         style="fill:#ffffff;fill-opacity:1;fill-rule:nonzero;stroke:none"
         d="m 1730.21,1569.17 c 60.54,-17.47 126.48,-1.4 172.61,44.72 45.42,45.42 61.76,111.9 44.55,172.43 -0.88,3.06 -0.09,6.29 2.09,8.47 l 20.88,20.88 c 4.54,4.54 12.22,2.7 14.41,-3.32 24.11,-67.09 13.89,-141.86 -26.55,-199.86 -6.99,-9.78 -14.86,-19.04 -23.5,-27.78 -42.1,-42.1 -98.09,-65.25 -157.66,-65.25 -22.19,0 -43.77,3.24 -64.38,9.35 -2.88,0.87 -5.77,1.92 -8.56,2.97 -6.03,2.18 -7.86,9.87 -3.32,14.42 l 20.88,20.78 c 2.27,2.28 5.5,3.06 8.55,2.19" />
      <path
         id="path124"
         style="fill:#ffffff;fill-opacity:1;fill-rule:nonzero;stroke:none"
         d="m 1432.88,1000.34 c -7.78,-3.57 -15.55,5.16 -11.18,12.49 l 104.73,176.37 c 0.79,1.31 1.84,2.44 3.15,3.14 l 46.46,26.82 c 7.78,4.45 16.51,-4.28 11.88,-12.06 l -94.25,-158.53 c -0.34,-0.62 -0.78,-1.22 -1.31,-1.75 l -16.42,-16.34 c -12.75,-12.75 -27.42,-22.79 -43.06,-30.14" />
      <path
         id="path126"
         style="fill:#ffffff;fill-opacity:1;fill-rule:nonzero;stroke:none"
         d="M 1435.76,1129.54 1354,991.879 c -1.83,-3.059 -5.24,-4.719 -8.73,-4.289 -9,1.41 -17.99,3.5 -26.73,6.469 -5.24,1.832 -7.6,7.941 -4.89,12.751 l 52.84,91.54 7.87,13.37 c 0.78,1.22 1.83,2.27 3.14,3.05 l 46.38,26.82 c 7.78,4.46 16.51,-4.37 11.88,-12.05" />
    </g>
  </g>
</svg>
